<?xml version="1.0" encoding="UTF-8"?>
<svg version="1.1" xmlns="http://www.w3.org/2000/svg" width="512" height="512">
<path d="M0 0 C1.01898167 -0.00698988 1.01898167 -0.00698988 2.05854884 -0.01412097 C4.33956768 -0.02609153 6.61999315 -0.01666797 8.90101719 -0.00736332 C10.55098015 -0.01153535 12.20094024 -0.01701214 13.85089499 -0.02368313 C18.38870106 -0.0381737 22.92632607 -0.03388177 27.4641422 -0.02651632 C32.35652948 -0.02179587 37.24887695 -0.03428451 42.14125156 -0.04453373 C51.72721062 -0.06174905 61.31310422 -0.06255609 70.89907473 -0.05732083 C78.68876669 -0.05328304 86.47843927 -0.05471802 94.2681303 -0.06006908 C95.37586501 -0.06081751 96.48359972 -0.06156593 97.62490215 -0.06233703 C99.8751001 -0.06386847 102.12529804 -0.06540682 104.37549598 -0.066952 C125.48776578 -0.08068688 146.59999856 -0.07523236 167.71226753 -0.06376678 C187.03638067 -0.05383292 206.36039808 -0.06677599 225.68449645 -0.09070098 C245.51641133 -0.11507011 265.34828158 -0.12470526 285.18021113 -0.11804825 C296.3183855 -0.11455122 307.45648623 -0.11681997 318.59464931 -0.13429928 C328.07615779 -0.14899392 337.55754076 -0.14969259 347.0390467 -0.13222837 C351.87826515 -0.12369347 356.71725913 -0.12162938 361.5564661 -0.13687992 C365.98479013 -0.15066303 370.41269605 -0.14604651 374.8409955 -0.12664068 C376.44457485 -0.12286069 378.04818719 -0.12585986 379.65173732 -0.13625234 C381.82943241 -0.14936429 384.00567196 -0.13789299 386.18330383 -0.12025452 C387.3934202 -0.12014718 388.60353658 -0.12003984 389.85032314 -0.11992925 C394.67917643 0.61113376 397.80938209 2.85368565 401.00534248 6.48072052 C402.75096613 10.88506404 402.57079007 15.07731436 402.54225254 19.77385616 C402.55033085 21.36037435 402.55033085 21.36037435 402.55857235 22.97894341 C402.57289833 26.52878656 402.56573659 30.07825925 402.55862522 33.62811947 C402.56432634 36.17081662 402.57128959 38.71351121 402.57942295 41.25620174 C402.59553017 47.44923466 402.59744923 53.64213041 402.59221005 59.83517795 C402.58816871 64.8688663 402.58961147 69.90252467 402.59495831 74.93621159 C402.59570673 75.65262036 402.59645515 76.36902913 402.59722625 77.10714727 C402.59875773 78.56252822 402.60029607 80.01790916 402.60184122 81.47329009 C402.61556933 95.12171441 402.61012639 108.77008141 402.59865601 122.41850442 C402.58872317 134.90428602 402.60166456 147.38991944 402.6255902 159.87567817 C402.64997371 172.69700157 402.65959093 185.51825593 402.65293747 198.33960205 C402.64944359 205.53745143 402.65168839 212.73518683 402.6691885 219.93301868 C402.68543825 226.70050735 402.68074056 233.46766748 402.66188335 240.23516369 C402.65818788 242.72082304 402.66133365 245.20650324 402.67176914 247.69214344 C402.68491451 251.08168979 402.67348769 254.47028852 402.65577793 257.85979366 C402.66538294 258.84666162 402.67498794 259.83352959 402.68488401 260.85030264 C402.62418193 266.48528738 402.15296966 270.06409729 398.15457249 274.38031673 C393.68798676 277.07212262 390.3864091 277.75621112 385.20171452 277.76063347 C384.18353464 277.76762335 384.18353464 277.76762335 383.14478546 277.77475443 C380.87160493 277.78669975 378.5990226 277.7773112 376.32583714 277.76799679 C374.67913592 277.77216991 373.03243757 277.77764731 371.38574457 277.7843166 C366.86159916 277.7987926 362.33763559 277.79451978 357.81348014 277.78714979 C352.93406216 277.7824258 348.05468396 277.79492108 343.17527866 277.8051672 C333.61686223 277.8223751 324.05851147 277.82319115 314.50008357 277.81795429 C306.73282207 277.8139154 298.96558 277.81535281 291.19831944 277.82070255 C290.09349558 277.82145097 288.98867172 277.8221994 287.85036835 277.8229705 C285.60604894 277.82450195 283.36172953 277.82604029 281.11741012 277.82758547 C260.06474748 277.84131748 239.01212199 277.83586768 217.9594602 277.82440025 C198.69037601 277.81446506 179.4213878 277.82741226 160.15231842 277.85133445 C140.37461245 277.87570346 120.59695124 277.88533886 100.81923056 277.87868172 C89.71237013 277.87518487 78.60558357 277.87745233 67.49873447 277.89493275 C58.04469847 277.90962716 48.59078833 277.91032627 39.13675487 277.89286184 C34.3117061 277.88432706 29.48688246 277.8822626 24.66184521 277.89751339 C20.2465136 277.91129668 15.83160134 277.90667977 11.4162944 277.88727415 C9.81745554 277.88349424 8.21858359 277.8864931 6.61977404 277.8968858 C4.44848515 277.90999824 2.27865597 277.89852608 0.10743046 277.88088799 C-1.09910608 277.88078065 -2.30564261 277.88067331 -3.54874086 277.88056272 C-8.37252929 277.14859118 -11.50348702 274.90325957 -14.69619751 271.27991295 C-16.44182116 266.87556943 -16.26164509 262.68331911 -16.23310757 257.98677731 C-16.2384931 256.92909851 -16.24387864 255.87141972 -16.24942738 254.78169006 C-16.26375335 251.23184691 -16.25659161 247.68237422 -16.24948025 244.132514 C-16.25518136 241.58981685 -16.26214461 239.04712226 -16.27027798 236.50443172 C-16.2863852 230.3113988 -16.28830426 224.11850306 -16.28306507 217.92545552 C-16.27902373 212.89176717 -16.28046649 207.8581088 -16.28581333 202.82442188 C-16.28656175 202.10801311 -16.28731018 201.39160433 -16.28808128 200.6534862 C-16.28961275 199.19810525 -16.2911511 197.74272431 -16.29269625 196.28734338 C-16.30642436 182.63891906 -16.30098141 168.99055206 -16.28951103 155.34212904 C-16.2795782 142.85634745 -16.29251958 130.37071403 -16.31644522 117.88495529 C-16.34082873 105.0636319 -16.35044595 92.24237754 -16.3437925 79.42103142 C-16.34029862 72.22318204 -16.34254341 65.02544664 -16.36004353 57.82761478 C-16.37629327 51.06012611 -16.37159559 44.29296599 -16.35273838 37.52546978 C-16.34904291 35.03981043 -16.35218868 32.55413022 -16.36262417 30.06849003 C-16.37576954 26.67894368 -16.36434272 23.29034494 -16.34663296 19.90083981 C-16.35623796 18.91397184 -16.36584297 17.92710388 -16.37573904 16.91033083 C-16.31482239 11.25542757 -15.79230747 7.75765681 -11.84542751 3.38031673 C-7.83101837 0.41790153 -4.94541558 0.00420634 0 0 Z M189.15457249 9.38031673 C189.47498646 11.98312242 189.47498646 11.98312242 190.15457249 14.38031673 C192.55176681 15.05990276 192.55176681 15.05990276 195.15457249 15.38031673 C197.42297231 13.54766349 197.42297231 13.54766349 197.34207249 10.81781673 C197.42460571 8.4334195 197.42460571 8.4334195 196.15457249 7.38031673 C192.19340448 6.9894134 192.19340448 6.9894134 189.15457249 9.38031673 Z M7.15457249 22.38031673 C7.15457249 99.27031673 7.15457249 176.16031673 7.15457249 255.38031673 C130.24457249 255.38031673 253.33457249 255.38031673 380.15457249 255.38031673 C380.15457249 178.49031673 380.15457249 101.60031673 380.15457249 22.38031673 C257.06457249 22.38031673 133.97457249 22.38031673 7.15457249 22.38031673 Z " fill="#000000" transform="translate(62.84542751312256,100.61968326568604)"/>
<path d="M0 0 C68.64 0 137.28 0 208 0 C208 2.97 208 5.94 208 9 C239.68 9 271.36 9 304 9 C304 6.03 304 3.06 304 0 C372.64 0 441.28 0 512 0 C512 14.3442623 512 14.3442623 507 20 C501.49655165 25.10075701 497.38663457 26.29719932 489.97134781 26.26006222 C488.74226061 26.26577072 488.74226061 26.26577072 487.48834336 26.27159455 C484.72493345 26.28195388 481.96172729 26.27799618 479.19830322 26.27415466 C477.20414712 26.27860471 475.20999278 26.28391799 473.21584105 26.29002339 C467.72194809 26.3042418 462.22811159 26.30586595 456.73420286 26.30542648 C450.81448915 26.30707131 444.89479893 26.32013154 438.97509766 26.33161926 C426.69892678 26.35330348 414.42276976 26.36187818 402.14658245 26.36665427 C401.14550118 26.36704603 401.14550118 26.36704603 400.12419605 26.36744571 C399.12112399 26.36783612 399.12112399 26.36783612 398.09778785 26.36823442 C390.69049251 26.37131553 383.28320076 26.37781987 375.8759079 26.3844471 C353.5068339 26.40409631 331.13776376 26.4204999 308.76868057 26.42332363 C307.69522274 26.42346472 307.69522274 26.42346472 306.60007889 26.42360866 C303.69985247 26.42398715 300.79962605 26.42435115 297.89939963 26.42471164 C295.71646173 26.42498336 293.53352383 26.42526004 291.35058594 26.42553711 C290.62925969 26.42562513 289.90793345 26.42571315 289.16474883 26.42580384 C266.50009367 26.42870931 243.8355238 26.45080454 221.17089844 26.48706055 C195.71458335 26.52778119 170.25832637 26.55148216 144.80197692 26.55178314 C142.08776966 26.55187997 139.37356242 26.55204669 136.65935516 26.55226326 C135.99103572 26.55230737 135.32271627 26.55235149 134.63414472 26.55239694 C124.54219779 26.55344774 114.45032803 26.56808059 104.35840607 26.58978081 C92.88015355 26.61425353 81.40205081 26.62160533 69.92377928 26.60653328 C64.06557995 26.59934767 58.20767663 26.60029317 52.34951019 26.62294388 C46.98778232 26.6434768 41.6265791 26.64098648 36.26485726 26.62006903 C34.32406282 26.61656326 32.38323095 26.6215299 30.4424856 26.63577347 C27.80502536 26.6538845 25.16942061 26.64117959 22.53201675 26.62082577 C21.40050121 26.63967083 21.40050121 26.63967083 20.24612677 26.6588966 C14.435031 26.56283433 10.54338563 24.57145779 6 21 C-0.52296706 13.96206185 0 10.46874417 0 0 Z M48 13 C48 13.66 48 14.32 48 15 C54.6 15 61.2 15 68 15 C68 14.34 68 13.68 68 13 C61.4 13 54.8 13 48 13 Z " fill="#000000" transform="translate(0,385)"/>
</svg>
